<svg width="15" height="20" viewBox="0 0 15 20" fill="none" xmlns="http://www.w3.org/2000/svg">
<path d="M7.98438 12.5C9.64437 12.5 10.9744 11.16 10.9744 9.5L10.9844 3.5C10.9844 1.84 9.64437 0.5 7.98438 0.5C6.32438 0.5 4.98438 1.84 4.98438 3.5V9.5C4.98438 11.16 6.32438 12.5 7.98438 12.5ZM13.2844 9.5C13.2844 12.5 10.7444 14.6 7.98438 14.6C5.22437 14.6 2.68437 12.5 2.68437 9.5H0.984375C0.984375 12.91 3.70438 15.73 6.98438 16.22V19.5H8.98438V16.22C12.2644 15.74 14.9844 12.92 14.9844 9.5H13.2844Z" fill="#E1347E"/>
</svg>
